<svg id="央铋_1" data-name="央铋 1" xmlns="http://www.w3.org/2000/svg" viewBox="0 0 1000 700">
  <defs>
    <style>
      .cls-1 {
        fill: #1d1d1b;
      }
    </style>
  </defs>
  <title>made</title>
  <g>
    <polygon class="cls-1" points="901.6 202.2 901.6 178.1 829.1 178.1 829.1 153.9 732.4 153.9 732.4 105.5 345.5 105.5 345.5 59.9 340.1 59.9 340.1 110.9 727 110.9 727 159.3 823.7 159.3 823.7 183.4 896.3 183.4 896.3 207.6 944.6 207.6 944.6 250.6 925.8 250.6 925.8 226.4 780.7 226.4 780.7 204.9 775.4 204.9 775.4 231.8 872.1 231.8 872.1 250.6 756.6 250.6 756.6 183.4 799.6 183.4 799.6 207.6 874.8 207.6 874.8 202.2 804.9 202.2 804.9 178.1 729.7 178.1 729.7 183.4 751.2 183.4 751.2 250.6 732.4 250.6 732.4 202.2 581.9 202.2 581.9 250.6 509.4 250.6 509.4 274.8 442.2 274.8 442.2 135.1 702.8 135.1 702.8 178.1 485.2 178.1 485.2 207.6 536.3 207.6 536.3 202.2 490.6 202.2 490.6 183.4 557.8 183.4 557.8 226.4 485.2 226.4 485.2 250.6 466.4 250.6 466.4 159.3 681.3 159.3 681.3 153.9 461 153.9 461 256 490.6 256 490.6 231.8 563.1 231.8 563.1 183.4 708.2 183.4 708.2 129.7 436.9 129.7 436.9 280.1 514.8 280.1 514.8 256 587.3 256 587.3 207.6 727 207.6 727 226.4 654.5 226.4 654.5 274.8 611.5 274.8 611.5 231.8 630.3 231.8 630.3 253.3 635.7 253.3 635.7 226.4 606.1 226.4 606.1 274.8 581.9 274.8 581.9 299 539 299 539 280.1 560.4 280.1 560.4 274.8 533.6 274.8 533.6 299 270.3 299 270.3 304.3 587.3 304.3 587.3 280.1 659.9 280.1 659.9 231.8 727 231.8 727 256 877.5 256 877.5 231.8 920.4 231.8 920.4 256 944.6 256 944.6 274.8 920.4 274.8 920.4 299 872.1 299 872.1 323.1 853.3 323.1 853.3 299 702.8 299 702.8 323.1 633 323.1 633 328.5 702.8 328.5 702.8 350 708.2 350 708.2 304.3 847.9 304.3 847.9 323.1 727 323.1 727 371.5 684 371.5 684 347.3 490.6 347.3 490.6 328.5 611.5 328.5 611.5 304.3 684 304.3 684 256 702.8 256 702.8 280.1 901.6 280.1 901.6 253.3 896.3 253.3 896.3 274.8 708.2 274.8 708.2 250.6 678.7 250.6 678.7 299 606.1 299 606.1 323.1 485.2 323.1 485.2 395.7 273 395.7 273 328.5 461 328.5 461 371.5 297.2 371.5 297.2 352.7 439.6 352.7 439.6 347.3 291.8 347.3 291.8 376.9 466.4 376.9 466.4 323.1 267.6 323.1 267.6 401 490.6 401 490.6 352.7 678.7 352.7 678.7 371.5 509.4 371.5 509.4 419.9 364.3 419.9 364.3 473.6 684 473.6 684 395.7 533.6 395.7 533.6 444 391.2 444 391.2 449.4 539 449.4 539 401 678.7 401 678.7 468.2 563.1 468.2 563.1 425.2 654.5 425.2 654.5 444 584.6 444 584.6 449.4 659.9 449.4 659.9 419.9 557.8 419.9 557.8 468.2 369.7 468.2 369.7 425.2 514.8 425.2 514.8 376.9 732.4 376.9 732.4 328.5 877.5 328.5 877.5 304.3 925.8 304.3 925.8 280.1 944.6 280.1 944.6 323.1 920.4 323.1 920.4 371.5 896.3 371.5 896.3 395.7 877.5 395.7 877.5 371.5 775.4 371.5 775.4 419.9 729.7 419.9 729.7 425.2 780.7 425.2 780.7 376.9 872.1 376.9 872.1 395.7 799.6 395.7 799.6 444 708.2 444 708.2 401 756.6 401 756.6 352.7 901.6 352.7 901.6 325.8 896.3 325.8 896.3 347.3 751.2 347.3 751.2 395.7 702.8 395.7 702.8 492.4 557.8 492.4 557.8 546.1 756.6 546.1 756.6 473.6 829.1 473.6 829.1 425.2 899 425.2 899 419.9 823.7 419.9 823.7 468.2 751.2 468.2 751.2 540.7 563.1 540.7 563.1 497.8 708.2 497.8 708.2 449.4 727 449.4 727 516.6 584.6 516.6 584.6 521.9 732.4 521.9 732.4 449.4 804.9 449.4 804.9 401 901.6 401 901.6 376.9 920.4 376.9 920.4 444 847.9 444 847.9 492.4 775.4 492.4 775.4 570.3 804.9 570.3 804.9 546.1 853.3 546.1 853.3 521.9 925.8 521.9 925.8 468.2 872.1 468.2 872.1 497.8 899 497.8 899 492.4 877.5 492.4 877.5 473.6 920.4 473.6 920.4 516.6 847.9 516.6 847.9 540.7 799.6 540.7 799.6 564.9 780.7 564.9 780.7 497.8 823.7 497.8 823.7 516.6 802.2 516.6 802.2 521.9 829.1 521.9 829.1 497.8 853.3 497.8 853.3 449.4 925.8 449.4 925.8 328.5 944.6 328.5 944.6 540.7 872.1 540.7 872.1 564.9 823.7 564.9 823.7 589.1 775.4 589.1 775.4 640.1 780.7 640.1 780.7 594.5 829.1 594.5 829.1 570.3 877.5 570.3 877.5 546.1 950 546.1 950 202.2 901.6 202.2"/>
    <polygon class="cls-1" points="466.4 570.3 753.9 570.3 753.9 564.9 461 564.9 461 589.1 442.2 589.1 442.2 564.9 393.9 564.9 393.9 546.1 539 546.1 539 492.4 364.3 492.4 364.3 521.9 512.1 521.9 512.1 516.6 369.7 516.6 369.7 497.8 533.6 497.8 533.6 540.7 388.5 540.7 388.5 564.9 369.7 564.9 369.7 540.7 246.1 540.7 246.1 546.1 364.3 546.1 364.3 564.9 200.4 564.9 200.4 546.1 224.6 546.1 224.6 521.9 345.5 521.9 345.5 419.9 267.6 419.9 267.6 497.8 321.3 497.8 321.3 444 291.8 444 291.8 470.9 297.2 470.9 297.2 449.4 316 449.4 316 492.4 273 492.4 273 425.2 340.1 425.2 340.1 516.6 248.8 516.6 248.8 492.4 170.9 492.4 170.9 516.6 125.2 516.6 125.2 521.9 170.9 521.9 170.9 543.4 176.3 543.4 176.3 521.9 197.8 521.9 197.8 516.6 176.3 516.6 176.3 497.8 243.4 497.8 243.4 516.6 219.3 516.6 219.3 540.7 195.1 540.7 195.1 564.9 152.1 564.9 152.1 540.7 103.7 540.7 103.7 497.8 152.1 497.8 152.1 473.6 248.8 473.6 248.8 299 195.1 299 195.1 347.3 122.5 347.3 122.5 419.9 98.4 419.9 98.4 468.2 74.2 468.2 74.2 495.1 79.6 495.1 79.6 473.6 103.7 473.6 103.7 425.2 127.9 425.2 127.9 352.7 200.4 352.7 200.4 304.3 243.4 304.3 243.4 395.7 170.9 395.7 170.9 449.4 224.6 449.4 224.6 419.9 197.8 419.9 197.8 425.2 219.3 425.2 219.3 444 176.3 444 176.3 401 243.4 401 243.4 468.2 146.7 468.2 146.7 492.4 127.9 492.4 127.9 449.4 152.1 449.4 152.1 376.9 224.6 376.9 224.6 325.8 219.3 325.8 219.3 371.5 146.7 371.5 146.7 444 122.5 444 122.5 492.4 98.4 492.4 98.4 540.7 79.6 540.7 79.6 516.6 55.4 516.6 55.4 449.4 79.6 449.4 79.6 401 103.7 401 103.7 328.5 176.3 328.5 176.3 280.1 418.1 280.1 418.1 132.4 412.7 132.4 412.7 153.9 219.3 153.9 219.3 202.2 146.7 202.2 146.7 250.6 101 250.6 101 256 152.1 256 152.1 207.6 224.6 207.6 224.6 159.3 412.7 159.3 412.7 274.8 176.3 274.8 176.3 231.8 248.8 231.8 248.8 183.4 267.6 183.4 267.6 231.8 369.7 231.8 369.7 202.2 294.5 202.2 294.5 207.6 364.3 207.6 364.3 226.4 273 226.4 273 183.4 388.5 183.4 388.5 250.6 197.8 250.6 197.8 256 393.9 256 393.9 178.1 243.4 178.1 243.4 226.4 170.9 226.4 170.9 323.1 152.1 323.1 152.1 274.8 79.6 274.8 79.6 231.8 127.9 231.8 127.9 183.4 200.4 183.4 200.4 135.1 391.2 135.1 391.2 129.7 195.1 129.7 195.1 178.1 122.5 178.1 122.5 226.4 74.2 226.4 74.2 280.1 146.7 280.1 146.7 323.1 127.9 323.1 127.9 299 74.2 299 74.2 374.2 79.6 374.2 79.6 304.3 122.5 304.3 122.5 323.1 98.4 323.1 98.4 395.7 74.2 395.7 74.2 444 55.4 444 55.4 207.6 103.7 207.6 103.7 159.3 176.3 159.3 176.3 110.9 321.3 110.9 321.3 59.9 316 59.9 316 105.5 170.9 105.5 170.9 153.9 98.4 153.9 98.4 202.2 50 202.2 50 521.9 74.2 521.9 74.2 546.1 146.7 546.1 146.7 570.3 436.9 570.3 436.9 594.5 751.2 594.5 751.2 640.1 756.6 640.1 756.6 589.1 466.4 589.1 466.4 570.3"/>
  </g>
</svg>
